<svg width="160" height="48" viewBox="0 0 160 48" fill="none" xmlns="http://www.w3.org/2000/svg">
  <!-- Running figure icon -->
  <g transform="translate(8, 8)">
    <!-- Runner silhouette -->
    <path d="M8 4 C10 2 12 2 14 4 C14 6 12 6 10 6 C8 6 8 4 8 4Z" fill="currentColor"/>
    <path d="M9 8 L11 8 L11 16 L13 20 L15 18 L17 22 L15 24 L11 20 L9 24 L7 22 L9 18 L9 8Z" fill="currentColor"/>
    <path d="M7 22 L5 26 L3 24 L5 20 Z" fill="currentColor"/>
    <path d="M15 24 L17 28 L19 26 L17 22 Z" fill="currentColor"/>
    <!-- Movement lines -->
    <path d="M20 12 L24 10 M20 14 L23 12 M20 16 L22 14" stroke="currentColor" stroke-width="1" opacity="0.6"/>
  </g>
  
  <!-- Stylized "RUNERO" text -->
  <g transform="translate(48, 12)">
    <!-- R -->
    <path d="M0 0 L0 24 M0 0 L8 0 C12 0 12 8 8 8 L0 8 M8 8 L12 24" stroke="currentColor" stroke-width="2.5" fill="none"/>
    <!-- U -->
    <path d="M16 0 L16 16 C16 20 20 20 24 20 C28 20 28 16 28 16 L28 0" stroke="currentColor" stroke-width="2.5" fill="none"/>
    <!-- N -->
    <path d="M32 24 L32 0 L44 24 L44 0" stroke="currentColor" stroke-width="2.5" fill="none"/>
    <!-- E -->
    <path d="M48 0 L48 24 M48 0 L58 0 M48 12 L54 12 M48 24 L58 24" stroke="currentColor" stroke-width="2.5" fill="none"/>
    <!-- R -->
    <path d="M62 0 L62 24 M62 0 L70 0 C74 0 74 8 70 8 L62 8 M70 8 L74 24" stroke="currentColor" stroke-width="2.5" fill="none"/>
    <!-- O -->
    <circle cx="84" cy="12" r="10" stroke="currentColor" stroke-width="2.5" fill="none"/>
  </g>
  
  <!-- Accent elements -->
  <circle cx="140" cy="24" r="3" fill="currentColor" opacity="0.4"/>
  <circle cx="148" cy="20" r="2" fill="currentColor" opacity="0.6"/>
  <circle cx="152" cy="28" r="1.5" fill="currentColor" opacity="0.8"/>
</svg>